<svg width="331" height="70" viewBox="0 0 331 70" fill="none" xmlns="http://www.w3.org/2000/svg">
<g clip-path="url(#clip0_244_202)">
<g clip-path="url(#clip1_244_202)">
<path fill-rule="evenodd" clip-rule="evenodd" d="M35 68C53.2254 68 68 53.2254 68 35C68 16.7746 53.2254 2 35 2C16.7746 2 2 16.7746 2 35C2 53.2254 16.7746 68 35 68ZM32 21V35V49L11 35L32 21ZM32 35L53 49V21L32 35Z" fill="#DA5025"/>
</g>
<path d="M83 56.5L91.0391 17.8359H107.883C116.195 17.8359 120.789 22.0469 119.148 29.8125C118 35.3906 114.719 38.9453 109.305 40.6953L115.594 56.5H105.859L100.719 41.7344H94.2109L91.1484 56.5H83ZM95.6328 34.8984H104.602C108.266 34.8984 110.508 33.0938 111.164 29.8125C111.875 26.4766 110.016 24.8359 106.789 24.8359H97.7109L95.6328 34.8984ZM132.711 56.9922C123.961 56.9922 119.75 52.2344 121.664 43.1016L122.211 40.5312C124.016 31.7266 130.086 26.75 138.727 26.75C147.258 26.75 151.523 31.6172 149.609 40.6406L148.898 44.0312H129.047V44.1406C128.172 48.2422 129.977 50.375 134.406 50.375C137.195 50.375 139.547 49.3906 140.312 47.5859L140.422 47.4219H147.914L147.805 47.75C146.273 53.4375 140.367 56.9922 132.711 56.9922ZM130.141 38.8906H142.281L142.391 38.4531C143.102 35.0078 140.914 33.2578 137.359 33.2578C133.531 33.2578 130.906 35.1172 130.141 38.8359V38.8906ZM159.016 56.5L155.133 27.2422H163.172L164.812 45.6719L175.039 27.2422H180.672L183.406 45.6719L192.43 27.2422H200.688L184.5 56.5H178.266L175.75 37.5234L165.359 56.5H159.016ZM197.953 56.5L204.023 27.2422H211.625L205.555 56.5H197.953ZM204.844 23.3047L206.047 17.6172H213.648L212.445 23.3047H204.844ZM211.242 56.5L217.312 27.2422H224.805L224.203 30.1406C226.773 27.9531 230.109 26.8594 233.336 26.8594C239.953 26.8594 242.961 31.125 241.484 38.2891L237.711 56.5H230.055L233.5 39.9844C234.375 35.7734 233.062 33.6953 229.508 33.6953C225.898 33.6953 223.273 35.6641 222.344 40.1484L218.953 56.5H211.242ZM254.062 56.9922C247.391 56.9922 243.836 52.3984 245.586 43.7578L246.406 39.9297C248.156 31.6172 253.898 26.75 260.242 26.75C263.469 26.75 265.766 27.7891 267.352 30.1406L269.922 17.8359H277.578L269.539 56.5H262.102L262.703 53.6016C260.297 55.9531 257.508 57.0469 254.062 56.9922ZM253.352 43.4297C252.367 47.9688 253.953 50.1562 257.289 50.1562C260.953 50.1562 263.688 47.6953 264.508 43.8125L265.273 40.0938C266.148 35.8828 264.562 33.5312 260.953 33.5312C257.289 33.5312 254.883 35.9375 254.008 40.2578L253.352 43.4297Z" fill="#1F1B1A"/>
<path d="M277.258 56.5V49.3906H280.648C283.984 49.3906 285.078 48.4609 285.078 45.0156V17.8359H293.227V46.4922C293.227 53.2188 289.617 56.5 282.836 56.5H277.258ZM313.406 56.8281C303.945 56.8281 298.641 52.3438 298.094 44.5234V43.7578H305.805V44.5234C306.352 48.1328 308.758 49.8828 313.844 49.8828C318.602 49.8828 321.008 48.2969 321.062 45.1797C321.062 42.3906 319.203 41.1328 314.719 40.5859L310.945 40.1484C303.016 39.1094 299.023 35.4453 299.023 29.1562C299.023 21.8828 304.547 17.2891 313.789 17.2891C322.648 17.2891 327.625 21.6094 328.227 28.9922V30.3594H320.406V28.9922C320.078 25.6562 318.164 24.0703 313.57 24.0703C308.922 24.0703 306.898 25.7109 306.898 28.5C306.898 31.1797 309.031 32.4922 313.516 33.0391L317.891 33.5859C325.109 34.5703 328.992 38.2891 328.992 44.5781C328.992 52.5078 323.086 56.8281 313.406 56.8281Z" fill="#1F1B1A"/>
</g>
<defs>
<clipPath id="clip0_244_202">
<rect width="331" height="70" fill="white"/>
</clipPath>
<clipPath id="clip1_244_202">
<rect x="-5" y="-5" width="80" height="80" rx="40" fill="white"/>
</clipPath>
</defs>
</svg>
