<svg width="366" height="96" viewBox="0 0 366 96" fill="none" xmlns="http://www.w3.org/2000/svg">
<g clip-path="url(#clip0_244_202)">
<path fill-rule="evenodd" clip-rule="evenodd" d="M48 81C66.2254 81 81 66.2254 81 48C81 29.7746 66.2254 15 48 15C29.7746 15 15 29.7746 15 48C15 66.2254 29.7746 81 48 81ZM45 34V48V62L24 48L45 34ZM45 48L66 62V34L45 48Z" fill="#DA5025"/>
</g>
<path d="M109.216 47.104H117.336C118.531 47.104 119.669 46.992 120.752 46.768C121.835 46.5067 122.787 46.1333 123.608 45.648C124.467 45.1253 125.139 44.472 125.624 43.688C126.147 42.8667 126.408 41.896 126.408 40.776C126.408 39.6933 126.221 38.8347 125.848 38.2C125.512 37.528 125.045 37.024 124.448 36.688C123.851 36.352 123.16 36.128 122.376 36.016C121.592 35.904 120.771 35.848 119.912 35.848H111.568L109.216 47.104ZM104.176 29.016H123.272C125.064 28.9787 126.688 29.1467 128.144 29.52C129.637 29.856 130.907 30.4533 131.952 31.312C132.997 32.1333 133.8 33.216 134.36 34.56C134.92 35.904 135.2 37.5467 135.2 39.488C135.2 40.832 134.976 42.12 134.528 43.352C134.08 44.584 133.445 45.6853 132.624 46.656C131.803 47.5893 130.832 48.3733 129.712 49.008C128.592 49.6427 127.36 50.0533 126.016 50.24V50.352C127.659 50.8747 128.76 51.7893 129.32 53.096C129.88 54.3653 130.16 55.8027 130.16 57.408C130.16 58.304 130.104 59.3867 129.992 60.656C129.917 61.888 129.88 63.12 129.88 64.352C129.88 65.248 129.917 66.1067 129.992 66.928C130.067 67.712 130.216 68.4027 130.44 69H121.872C121.76 68.5147 121.667 68.0667 121.592 67.656C121.517 67.208 121.48 66.76 121.48 66.312C121.48 64.968 121.555 63.624 121.704 62.28C121.853 60.8987 121.928 59.536 121.928 58.192C121.928 57.2213 121.779 56.4373 121.48 55.84C121.219 55.2053 120.827 54.7013 120.304 54.328C119.819 53.9547 119.221 53.712 118.512 53.6C117.803 53.4507 117.019 53.376 116.16 53.376H107.872L104.568 69H95.832L104.176 29.016ZM158.758 51.416C158.758 50.6693 158.683 49.9413 158.534 49.232C158.422 48.4853 158.179 47.8133 157.806 47.216C157.433 46.6187 156.891 46.152 156.182 45.816C155.473 45.4427 154.539 45.256 153.382 45.256C152.262 45.256 151.273 45.424 150.414 45.76C149.555 46.096 148.809 46.544 148.174 47.104C147.539 47.664 146.998 48.3173 146.55 49.064C146.139 49.8107 145.785 50.5947 145.486 51.416H158.758ZM144.646 56.456C144.609 56.6427 144.59 56.8107 144.59 56.96C144.59 57.1093 144.59 57.2587 144.59 57.408V58.136C144.59 59.816 145.113 61.1787 146.158 62.224C147.203 63.2693 148.809 63.792 150.974 63.792C151.758 63.792 152.449 63.68 153.046 63.456C153.681 63.1947 154.222 62.8773 154.67 62.504C155.155 62.1307 155.566 61.7013 155.902 61.216C156.275 60.7307 156.611 60.264 156.91 59.816H164.862C164.227 61.4587 163.481 62.896 162.622 64.128C161.763 65.36 160.737 66.4053 159.542 67.264C158.347 68.0853 156.947 68.7013 155.342 69.112C153.774 69.5227 151.945 69.728 149.854 69.728C147.913 69.728 146.139 69.4667 144.534 68.944C142.966 68.4213 141.622 67.6373 140.502 66.592C139.382 65.5093 138.505 64.184 137.87 62.616C137.273 61.048 136.974 59.2187 136.974 57.128C136.974 54.8133 137.347 52.592 138.094 50.464C138.841 48.2987 139.886 46.3947 141.23 44.752C142.611 43.072 144.291 41.7467 146.27 40.776C148.249 39.768 150.47 39.264 152.934 39.264C154.95 39.264 156.779 39.5253 158.422 40.048C160.102 40.5707 161.521 41.3733 162.678 42.456C163.873 43.5013 164.787 44.8267 165.422 46.432C166.094 48 166.43 49.8293 166.43 51.92C166.43 53.3387 166.281 54.8507 165.982 56.456H144.646ZM200.154 69H191.866L190.858 48.672H190.746L181.786 69H173.442L170.25 40.048H178.37L179.49 60.432H179.602L188.506 40.048H196.57L197.466 60.264H197.578L206.874 40.048H215.274L200.154 69ZM228.626 35.568H220.618L222.074 29.016H230.082L228.626 35.568ZM219.722 40.048H227.73L221.57 69H213.618L219.722 40.048ZM234.103 40.048H241.719L240.823 44.08H240.935C243.511 40.8693 246.889 39.264 251.071 39.264C256.708 39.264 259.527 41.8587 259.527 47.048C259.527 47.3467 259.489 47.7387 259.415 48.224C259.34 48.672 259.247 49.1387 259.135 49.624C259.06 50.1093 258.967 50.576 258.855 51.024C258.78 51.4347 258.724 51.7707 258.687 52.032L255.103 69H247.151L250.679 52.032C250.753 51.584 250.847 50.9867 250.959 50.24C251.108 49.4933 251.183 48.9147 251.183 48.504C251.183 47.6453 250.772 46.936 249.951 46.376C249.167 45.816 248.308 45.536 247.375 45.536C246.18 45.536 245.116 45.7787 244.183 46.264C243.287 46.712 242.503 47.3093 241.831 48.056C241.196 48.8027 240.655 49.6613 240.207 50.632C239.796 51.6027 239.479 52.592 239.255 53.6L236.007 69H228.111L234.103 40.048ZM280.153 45.256C278.66 45.256 277.353 45.648 276.233 46.432C275.15 47.216 274.254 48.2053 273.545 49.4C272.836 50.5947 272.313 51.9013 271.977 53.32C271.641 54.7387 271.473 56.0827 271.473 57.352C271.473 58.2107 271.585 59.032 271.809 59.816C272.07 60.6 272.425 61.2907 272.873 61.888C273.358 62.448 273.956 62.9147 274.665 63.288C275.374 63.624 276.196 63.792 277.129 63.792C278.622 63.792 279.91 63.4 280.993 62.616C282.076 61.7947 282.972 60.768 283.681 59.536C284.428 58.304 284.969 56.9787 285.305 55.56C285.678 54.104 285.865 52.76 285.865 51.528C285.865 49.624 285.398 48.112 284.465 46.992C283.532 45.8347 282.094 45.256 280.153 45.256ZM283.345 65.416L283.233 65.304C282.337 66.872 281.105 68.0107 279.537 68.72C278.006 69.392 276.345 69.728 274.553 69.728C271.044 69.728 268.318 68.72 266.377 66.704C264.473 64.6507 263.521 61.8693 263.521 58.36C263.521 55.9707 263.838 53.6373 264.473 51.36C265.108 49.0827 266.078 47.048 267.385 45.256C268.692 43.464 270.334 42.0267 272.313 40.944C274.292 39.824 276.625 39.264 279.313 39.264C280.993 39.264 282.598 39.6373 284.129 40.384C285.697 41.1307 286.798 42.3067 287.433 43.912H287.545L290.737 29.016H298.689L290.233 69H282.561L283.345 65.416Z" fill="#1F1B1A"/>
<path d="M325.272 56.4C325.272 57.7067 325.141 59.144 324.88 60.712C324.619 62.28 324.021 63.7547 323.088 65.136C322.155 66.48 320.811 67.6187 319.056 68.552C317.301 69.448 314.931 69.896 311.944 69.896C310.264 69.896 308.64 69.6533 307.072 69.168C305.504 68.72 304.104 68.0107 302.872 67.04C301.64 66.032 300.651 64.7627 299.904 63.232C299.157 61.664 298.784 59.7787 298.784 57.576V54.104H306.736V55.896C306.736 56.8667 306.811 57.7627 306.96 58.584C307.109 59.4053 307.371 60.1147 307.744 60.712C308.117 61.272 308.621 61.72 309.256 62.056C309.928 62.392 310.787 62.56 311.832 62.56C312.989 62.56 313.885 62.3547 314.52 61.944C315.155 61.5333 315.603 61.0107 315.864 60.376C316.163 59.704 316.331 58.9947 316.368 58.248C316.443 57.464 316.48 56.7173 316.48 56.008V29.016H325.272V56.4ZM338.973 55.728C338.973 57.072 339.216 58.2107 339.701 59.144C340.187 60.0773 340.821 60.8427 341.605 61.44C342.427 62 343.379 62.4293 344.461 62.728C345.544 62.9893 346.664 63.12 347.821 63.12C348.605 63.12 349.445 63.064 350.341 62.952C351.237 62.8027 352.077 62.5413 352.861 62.168C353.645 61.7947 354.299 61.2907 354.821 60.656C355.344 59.984 355.605 59.144 355.605 58.136C355.605 57.0533 355.251 56.176 354.541 55.504C353.869 54.832 352.973 54.272 351.853 53.824C350.733 53.376 349.464 52.984 348.045 52.648C346.627 52.312 345.189 51.9387 343.733 51.528C342.24 51.1547 340.784 50.7067 339.365 50.184C337.947 49.624 336.677 48.9147 335.557 48.056C334.437 47.1973 333.523 46.1333 332.813 44.864C332.141 43.5573 331.805 41.9893 331.805 40.16C331.805 38.1067 332.235 36.3333 333.093 34.84C333.989 33.3093 335.147 32.04 336.565 31.032C337.984 30.024 339.589 29.2773 341.381 28.792C343.173 28.3067 344.965 28.064 346.757 28.064C348.848 28.064 350.845 28.3067 352.749 28.792C354.691 29.24 356.408 29.9867 357.901 31.032C359.395 32.0773 360.571 33.4213 361.429 35.064C362.325 36.6693 362.773 38.6293 362.773 40.944H354.261C354.187 39.7493 353.925 38.76 353.477 37.976C353.067 37.192 352.507 36.576 351.797 36.128C351.088 35.68 350.267 35.3627 349.333 35.176C348.437 34.9893 347.448 34.896 346.365 34.896C345.656 34.896 344.947 34.9707 344.237 35.12C343.528 35.2693 342.875 35.5307 342.277 35.904C341.717 36.2773 341.251 36.744 340.877 37.304C340.504 37.864 340.317 38.5733 340.317 39.432C340.317 40.216 340.467 40.8507 340.765 41.336C341.064 41.8213 341.643 42.2693 342.501 42.68C343.397 43.0907 344.611 43.5013 346.141 43.912C347.709 44.3227 349.744 44.8453 352.245 45.48C352.992 45.6293 354.019 45.9093 355.325 46.32C356.669 46.6933 357.995 47.3093 359.301 48.168C360.608 49.0267 361.728 50.184 362.661 51.64C363.632 53.0587 364.117 54.888 364.117 57.128C364.117 58.9573 363.763 60.656 363.053 62.224C362.344 63.792 361.28 65.1547 359.861 66.312C358.48 67.432 356.744 68.3093 354.653 68.944C352.6 69.5787 350.211 69.896 347.485 69.896C345.283 69.896 343.136 69.616 341.045 69.056C338.992 68.5333 337.163 67.6933 335.557 66.536C333.989 65.3787 332.739 63.904 331.805 62.112C330.872 60.32 330.424 58.192 330.461 55.728H338.973Z" fill="#1F1B1A"/>
<defs>
<clipPath id="clip0_244_202">
<rect x="8" y="8" width="80" height="80" rx="40" fill="white"/>
</clipPath>
</defs>
</svg>
