<svg width="353" height="70" viewBox="0 0 353 70" fill="none" xmlns="http://www.w3.org/2000/svg">
<g clip-path="url(#clip0_244_230)">
<g clip-path="url(#clip1_244_230)">
<path fill-rule="evenodd" clip-rule="evenodd" d="M35 68C53.2254 68 68 53.2254 68 35C68 16.7746 53.2254 2 35 2C16.7746 2 2 16.7746 2 35C2 53.2254 16.7746 68 35 68ZM32 21V35V49L11 35L32 21ZM32 35L53 49V21L32 35Z" fill="#EB3D32"/>
</g>
<path d="M96.216 34.104H104.336C105.531 34.104 106.669 33.992 107.752 33.768C108.835 33.5067 109.787 33.1333 110.608 32.648C111.467 32.1253 112.139 31.472 112.624 30.688C113.147 29.8667 113.408 28.896 113.408 27.776C113.408 26.6933 113.221 25.8347 112.848 25.2C112.512 24.528 112.045 24.024 111.448 23.688C110.851 23.352 110.16 23.128 109.376 23.016C108.592 22.904 107.771 22.848 106.912 22.848H98.568L96.216 34.104ZM91.176 16.016H110.272C112.064 15.9787 113.688 16.1467 115.144 16.52C116.637 16.856 117.907 17.4533 118.952 18.312C119.997 19.1333 120.8 20.216 121.36 21.56C121.92 22.904 122.2 24.5467 122.2 26.488C122.2 27.832 121.976 29.12 121.528 30.352C121.08 31.584 120.445 32.6853 119.624 33.656C118.803 34.5893 117.832 35.3733 116.712 36.008C115.592 36.6427 114.36 37.0533 113.016 37.24V37.352C114.659 37.8747 115.76 38.7893 116.32 40.096C116.88 41.3653 117.16 42.8027 117.16 44.408C117.16 45.304 117.104 46.3867 116.992 47.656C116.917 48.888 116.88 50.12 116.88 51.352C116.88 52.248 116.917 53.1067 116.992 53.928C117.067 54.712 117.216 55.4027 117.44 56H108.872C108.76 55.5147 108.667 55.0667 108.592 54.656C108.517 54.208 108.48 53.76 108.48 53.312C108.48 51.968 108.555 50.624 108.704 49.28C108.853 47.8987 108.928 46.536 108.928 45.192C108.928 44.2213 108.779 43.4373 108.48 42.84C108.219 42.2053 107.827 41.7013 107.304 41.328C106.819 40.9547 106.221 40.712 105.512 40.6C104.803 40.4507 104.019 40.376 103.16 40.376H94.872L91.568 56H82.832L91.176 16.016ZM145.758 38.416C145.758 37.6693 145.683 36.9413 145.534 36.232C145.422 35.4853 145.179 34.8133 144.806 34.216C144.433 33.6187 143.891 33.152 143.182 32.816C142.473 32.4427 141.539 32.256 140.382 32.256C139.262 32.256 138.273 32.424 137.414 32.76C136.555 33.096 135.809 33.544 135.174 34.104C134.539 34.664 133.998 35.3173 133.55 36.064C133.139 36.8107 132.785 37.5947 132.486 38.416H145.758ZM131.646 43.456C131.609 43.6427 131.59 43.8107 131.59 43.96C131.59 44.1093 131.59 44.2587 131.59 44.408V45.136C131.59 46.816 132.113 48.1787 133.158 49.224C134.203 50.2693 135.809 50.792 137.974 50.792C138.758 50.792 139.449 50.68 140.046 50.456C140.681 50.1947 141.222 49.8773 141.67 49.504C142.155 49.1307 142.566 48.7013 142.902 48.216C143.275 47.7307 143.611 47.264 143.91 46.816H151.862C151.227 48.4587 150.481 49.896 149.622 51.128C148.763 52.36 147.737 53.4053 146.542 54.264C145.347 55.0853 143.947 55.7013 142.342 56.112C140.774 56.5227 138.945 56.728 136.854 56.728C134.913 56.728 133.139 56.4667 131.534 55.944C129.966 55.4213 128.622 54.6373 127.502 53.592C126.382 52.5093 125.505 51.184 124.87 49.616C124.273 48.048 123.974 46.2187 123.974 44.128C123.974 41.8133 124.347 39.592 125.094 37.464C125.841 35.2987 126.886 33.3947 128.23 31.752C129.611 30.072 131.291 28.7467 133.27 27.776C135.249 26.768 137.47 26.264 139.934 26.264C141.95 26.264 143.779 26.5253 145.422 27.048C147.102 27.5707 148.521 28.3733 149.678 29.456C150.873 30.5013 151.787 31.8267 152.422 33.432C153.094 35 153.43 36.8293 153.43 38.92C153.43 40.3387 153.281 41.8507 152.982 43.456H131.646ZM187.154 56H178.866L177.858 35.672H177.746L168.786 56H160.442L157.25 27.048H165.37L166.49 47.432H166.602L175.506 27.048H183.57L184.466 47.264H184.578L193.874 27.048H202.274L187.154 56ZM215.626 22.568H207.618L209.074 16.016H217.082L215.626 22.568ZM206.722 27.048H214.73L208.57 56H200.618L206.722 27.048ZM221.103 27.048H228.719L227.823 31.08H227.935C230.511 27.8693 233.889 26.264 238.071 26.264C243.708 26.264 246.527 28.8587 246.527 34.048C246.527 34.3467 246.489 34.7387 246.415 35.224C246.34 35.672 246.247 36.1387 246.135 36.624C246.06 37.1093 245.967 37.576 245.855 38.024C245.78 38.4347 245.724 38.7707 245.687 39.032L242.103 56H234.151L237.679 39.032C237.753 38.584 237.847 37.9867 237.959 37.24C238.108 36.4933 238.183 35.9147 238.183 35.504C238.183 34.6453 237.772 33.936 236.951 33.376C236.167 32.816 235.308 32.536 234.375 32.536C233.18 32.536 232.116 32.7787 231.183 33.264C230.287 33.712 229.503 34.3093 228.831 35.056C228.196 35.8027 227.655 36.6613 227.207 37.632C226.796 38.6027 226.479 39.592 226.255 40.6L223.007 56H215.111L221.103 27.048ZM267.153 32.256C265.66 32.256 264.353 32.648 263.233 33.432C262.15 34.216 261.254 35.2053 260.545 36.4C259.836 37.5947 259.313 38.9013 258.977 40.32C258.641 41.7387 258.473 43.0827 258.473 44.352C258.473 45.2107 258.585 46.032 258.809 46.816C259.07 47.6 259.425 48.2907 259.873 48.888C260.358 49.448 260.956 49.9147 261.665 50.288C262.374 50.624 263.196 50.792 264.129 50.792C265.622 50.792 266.91 50.4 267.993 49.616C269.076 48.7947 269.972 47.768 270.681 46.536C271.428 45.304 271.969 43.9787 272.305 42.56C272.678 41.104 272.865 39.76 272.865 38.528C272.865 36.624 272.398 35.112 271.465 33.992C270.532 32.8347 269.094 32.256 267.153 32.256ZM270.345 52.416L270.233 52.304C269.337 53.872 268.105 55.0107 266.537 55.72C265.006 56.392 263.345 56.728 261.553 56.728C258.044 56.728 255.318 55.72 253.377 53.704C251.473 51.6507 250.521 48.8693 250.521 45.36C250.521 42.9707 250.838 40.6373 251.473 38.36C252.108 36.0827 253.078 34.048 254.385 32.256C255.692 30.464 257.334 29.0267 259.313 27.944C261.292 26.824 263.625 26.264 266.313 26.264C267.993 26.264 269.598 26.6373 271.129 27.384C272.697 28.1307 273.798 29.3067 274.433 30.912H274.545L277.737 16.016H285.689L277.233 56H269.561L270.345 52.416Z" fill="#F9F8F1"/>
<path d="M312.272 43.4C312.272 44.7067 312.141 46.144 311.88 47.712C311.619 49.28 311.021 50.7547 310.088 52.136C309.155 53.48 307.811 54.6187 306.056 55.552C304.301 56.448 301.931 56.896 298.944 56.896C297.264 56.896 295.64 56.6533 294.072 56.168C292.504 55.72 291.104 55.0107 289.872 54.04C288.64 53.032 287.651 51.7627 286.904 50.232C286.157 48.664 285.784 46.7787 285.784 44.576V41.104H293.736V42.896C293.736 43.8667 293.811 44.7627 293.96 45.584C294.109 46.4053 294.371 47.1147 294.744 47.712C295.117 48.272 295.621 48.72 296.256 49.056C296.928 49.392 297.787 49.56 298.832 49.56C299.989 49.56 300.885 49.3547 301.52 48.944C302.155 48.5333 302.603 48.0107 302.864 47.376C303.163 46.704 303.331 45.9947 303.368 45.248C303.443 44.464 303.48 43.7173 303.48 43.008V16.016H312.272V43.4ZM325.973 42.728C325.973 44.072 326.216 45.2107 326.701 46.144C327.187 47.0773 327.821 47.8427 328.605 48.44C329.427 49 330.379 49.4293 331.461 49.728C332.544 49.9893 333.664 50.12 334.821 50.12C335.605 50.12 336.445 50.064 337.341 49.952C338.237 49.8027 339.077 49.5413 339.861 49.168C340.645 48.7947 341.299 48.2907 341.821 47.656C342.344 46.984 342.605 46.144 342.605 45.136C342.605 44.0533 342.251 43.176 341.541 42.504C340.869 41.832 339.973 41.272 338.853 40.824C337.733 40.376 336.464 39.984 335.045 39.648C333.627 39.312 332.189 38.9387 330.733 38.528C329.24 38.1547 327.784 37.7067 326.365 37.184C324.947 36.624 323.677 35.9147 322.557 35.056C321.437 34.1973 320.523 33.1333 319.813 31.864C319.141 30.5573 318.805 28.9893 318.805 27.16C318.805 25.1067 319.235 23.3333 320.093 21.84C320.989 20.3093 322.147 19.04 323.565 18.032C324.984 17.024 326.589 16.2773 328.381 15.792C330.173 15.3067 331.965 15.064 333.757 15.064C335.848 15.064 337.845 15.3067 339.749 15.792C341.691 16.24 343.408 16.9867 344.901 18.032C346.395 19.0773 347.571 20.4213 348.429 22.064C349.325 23.6693 349.773 25.6293 349.773 27.944H341.261C341.187 26.7493 340.925 25.76 340.477 24.976C340.067 24.192 339.507 23.576 338.797 23.128C338.088 22.68 337.267 22.3627 336.333 22.176C335.437 21.9893 334.448 21.896 333.365 21.896C332.656 21.896 331.947 21.9707 331.237 22.12C330.528 22.2693 329.875 22.5307 329.277 22.904C328.717 23.2773 328.251 23.744 327.877 24.304C327.504 24.864 327.317 25.5733 327.317 26.432C327.317 27.216 327.467 27.8507 327.765 28.336C328.064 28.8213 328.643 29.2693 329.501 29.68C330.397 30.0907 331.611 30.5013 333.141 30.912C334.709 31.3227 336.744 31.8453 339.245 32.48C339.992 32.6293 341.019 32.9093 342.325 33.32C343.669 33.6933 344.995 34.3093 346.301 35.168C347.608 36.0267 348.728 37.184 349.661 38.64C350.632 40.0587 351.117 41.888 351.117 44.128C351.117 45.9573 350.763 47.656 350.053 49.224C349.344 50.792 348.28 52.1547 346.861 53.312C345.48 54.432 343.744 55.3093 341.653 55.944C339.6 56.5787 337.211 56.896 334.485 56.896C332.283 56.896 330.136 56.616 328.045 56.056C325.992 55.5333 324.163 54.6933 322.557 53.536C320.989 52.3787 319.739 50.904 318.805 49.112C317.872 47.32 317.424 45.192 317.461 42.728H325.973Z" fill="#F9F8F1"/>
</g>
<defs>
<clipPath id="clip0_244_230">
<rect width="353" height="70" fill="white"/>
</clipPath>
<clipPath id="clip1_244_230">
<rect x="-5" y="-5" width="80" height="80" rx="40" fill="white"/>
</clipPath>
</defs>
</svg>
